<svg width="18" height="22" viewBox="0 0 18 22" fill="none" xmlns="http://www.w3.org/2000/svg">
<path d="M0.333313 18.5833V16.9583H2.60831V8.67079C2.60831 7.15413 3.05519 5.80447 3.94894 4.62183C4.84269 3.4392 6.02081 2.6944 7.48331 2.38746V1.60204C7.48331 1.18676 7.63227 0.843709 7.93019 0.572876C8.2281 0.302043 8.5847 0.166626 8.99998 0.166626C9.41526 0.166626 9.77186 0.302043 10.0698 0.572876C10.3677 0.843709 10.5166 1.18676 10.5166 1.60204V2.38746C11.9791 2.6944 13.1618 3.4392 14.0646 4.62183C14.9673 5.80447 15.4187 7.15413 15.4187 8.67079V16.9583H17.6666V18.5833H0.333313ZM8.99998 21.8333C8.4222 21.8333 7.91665 21.6211 7.48331 21.1968C7.04998 20.7725 6.83331 20.2625 6.83331 19.6666H11.1666C11.1666 20.2625 10.9545 20.7725 10.5302 21.1968C10.1059 21.6211 9.59581 21.8333 8.99998 21.8333ZM4.23331 16.9583H13.7937V8.67079C13.7937 7.33468 13.3333 6.19718 12.4125 5.25829C11.4916 4.3194 10.3632 3.84996 9.02706 3.84996C7.69095 3.84996 6.55797 4.3194 5.6281 5.25829C4.69824 6.19718 4.23331 7.33468 4.23331 8.67079V16.9583Z" fill="#AAAAAA"/>
</svg>
