<svg width="201" height="66" viewBox="0 0 201 66" fill="none" xmlns="http://www.w3.org/2000/svg">
<path d="M89.704 19.252C90.832 19.252 91.656 18.98 92.176 18.436C92.704 17.892 92.968 17.148 92.968 16.204C92.968 15.772 92.9 15.38 92.764 15.028C92.636 14.668 92.436 14.364 92.164 14.116C91.9 13.86 91.564 13.664 91.156 13.528C90.748 13.392 90.264 13.324 89.704 13.324H87.424V19.252H89.704ZM89.704 10.588C90.896 10.588 91.924 10.728 92.788 11.008C93.66 11.288 94.376 11.68 94.936 12.184C95.496 12.68 95.908 13.272 96.172 13.96C96.444 14.648 96.58 15.396 96.58 16.204C96.58 17.06 96.44 17.844 96.16 18.556C95.88 19.268 95.456 19.88 94.888 20.392C94.32 20.904 93.604 21.304 92.74 21.592C91.876 21.872 90.864 22.012 89.704 22.012H87.424V28H83.824V10.588H89.704ZM104.531 22.828C103.723 22.868 103.051 22.94 102.515 23.044C101.979 23.14 101.551 23.268 101.231 23.428C100.919 23.588 100.695 23.772 100.559 23.98C100.431 24.18 100.367 24.4 100.367 24.64C100.367 25.12 100.499 25.46 100.763 25.66C101.035 25.86 101.411 25.96 101.891 25.96C102.443 25.96 102.919 25.864 103.319 25.672C103.727 25.472 104.131 25.164 104.531 24.748V22.828ZM97.7873 17.344C98.5153 16.688 99.3193 16.2 100.199 15.88C101.079 15.552 102.031 15.388 103.055 15.388C103.791 15.388 104.447 15.508 105.023 15.748C105.607 15.988 106.099 16.324 106.499 16.756C106.907 17.18 107.219 17.688 107.435 18.28C107.651 18.872 107.759 19.52 107.759 20.224V28H106.247C105.935 28 105.695 27.956 105.527 27.868C105.367 27.78 105.235 27.596 105.131 27.316L104.867 26.524C104.555 26.796 104.251 27.036 103.955 27.244C103.667 27.452 103.367 27.628 103.055 27.772C102.743 27.908 102.407 28.012 102.047 28.084C101.695 28.156 101.299 28.192 100.859 28.192C100.315 28.192 99.8193 28.12 99.3713 27.976C98.9233 27.832 98.5353 27.62 98.2073 27.34C97.8873 27.052 97.6393 26.696 97.4633 26.272C97.2873 25.848 97.1993 25.36 97.1993 24.808C97.1993 24.352 97.3153 23.896 97.5473 23.44C97.7793 22.984 98.1753 22.572 98.7353 22.204C99.3033 21.828 100.055 21.52 100.991 21.28C101.935 21.032 103.115 20.892 104.531 20.86V20.224C104.531 19.448 104.367 18.88 104.039 18.52C103.711 18.152 103.239 17.968 102.623 17.968C102.167 17.968 101.787 18.024 101.483 18.136C101.179 18.24 100.911 18.356 100.679 18.484C100.455 18.604 100.243 18.72 100.043 18.832C99.8433 18.936 99.6113 18.988 99.3473 18.988C99.1153 18.988 98.9193 18.932 98.7593 18.82C98.6073 18.7 98.4793 18.56 98.3753 18.4L97.7873 17.344ZM113.681 10.108V28H110.369V10.108H113.681ZM119.75 24.736C120.062 25.096 120.398 25.348 120.758 25.492C121.126 25.636 121.518 25.708 121.934 25.708C122.334 25.708 122.698 25.632 123.026 25.48C123.354 25.328 123.634 25.092 123.866 24.772C124.106 24.444 124.29 24.028 124.418 23.524C124.546 23.02 124.61 22.42 124.61 21.724C124.61 21.036 124.554 20.452 124.442 19.972C124.338 19.492 124.186 19.104 123.986 18.808C123.794 18.512 123.558 18.3 123.278 18.172C122.998 18.036 122.686 17.968 122.342 17.968C121.758 17.968 121.266 18.084 120.866 18.316C120.474 18.54 120.102 18.872 119.75 19.312V24.736ZM119.558 17.248C119.806 16.976 120.07 16.728 120.35 16.504C120.63 16.272 120.93 16.076 121.25 15.916C121.57 15.748 121.914 15.62 122.282 15.532C122.65 15.436 123.05 15.388 123.482 15.388C124.146 15.388 124.754 15.532 125.306 15.82C125.866 16.1 126.346 16.512 126.746 17.056C127.146 17.592 127.458 18.252 127.682 19.036C127.906 19.82 128.018 20.716 128.018 21.724C128.018 22.652 127.89 23.512 127.634 24.304C127.386 25.088 127.03 25.768 126.566 26.344C126.102 26.92 125.542 27.372 124.886 27.7C124.238 28.02 123.514 28.18 122.714 28.18C122.042 28.18 121.47 28.08 120.998 27.88C120.534 27.68 120.118 27.408 119.75 27.064V31.996H116.438V15.628H118.478C118.894 15.628 119.17 15.82 119.306 16.204L119.558 17.248ZM133.557 15.628V28H130.245V15.628H133.557ZM133.953 12.112C133.953 12.392 133.897 12.652 133.785 12.892C133.673 13.132 133.521 13.344 133.329 13.528C133.145 13.712 132.925 13.856 132.669 13.96C132.421 14.064 132.153 14.116 131.865 14.116C131.593 14.116 131.333 14.064 131.085 13.96C130.845 13.856 130.633 13.712 130.449 13.528C130.265 13.344 130.117 13.132 130.005 12.892C129.901 12.652 129.849 12.392 129.849 12.112C129.849 11.832 129.901 11.572 130.005 11.332C130.117 11.084 130.265 10.868 130.449 10.684C130.633 10.5 130.845 10.356 131.085 10.252C131.333 10.148 131.593 10.096 131.865 10.096C132.153 10.096 132.421 10.148 132.669 10.252C132.925 10.356 133.145 10.5 133.329 10.684C133.521 10.868 133.673 11.084 133.785 11.332C133.897 11.572 133.953 11.832 133.953 12.112ZM140.656 28.192C140.096 28.192 139.6 28.112 139.168 27.952C138.736 27.784 138.372 27.548 138.076 27.244C137.78 26.94 137.556 26.572 137.404 26.14C137.252 25.708 137.176 25.22 137.176 24.676V18.004H136.012C135.836 18.004 135.684 17.948 135.556 17.836C135.436 17.724 135.376 17.556 135.376 17.332V16.036L137.356 15.676L138.028 12.472C138.116 12.112 138.36 11.932 138.76 11.932H140.488V15.7H143.68V18.004H140.488V24.46C140.488 24.804 140.568 25.076 140.728 25.276C140.896 25.476 141.132 25.576 141.436 25.576C141.596 25.576 141.732 25.56 141.844 25.528C141.956 25.488 142.052 25.448 142.132 25.408C142.212 25.36 142.284 25.32 142.348 25.288C142.42 25.248 142.492 25.228 142.564 25.228C142.66 25.228 142.74 25.252 142.804 25.3C142.868 25.34 142.932 25.412 142.996 25.516L143.992 27.1C143.536 27.46 143.02 27.732 142.444 27.916C141.868 28.1 141.272 28.192 140.656 28.192ZM153.185 20.356C153.185 20.012 153.137 19.684 153.041 19.372C152.953 19.06 152.809 18.784 152.609 18.544C152.409 18.304 152.157 18.116 151.853 17.98C151.549 17.836 151.185 17.764 150.761 17.764C149.969 17.764 149.349 17.988 148.901 18.436C148.453 18.884 148.161 19.524 148.025 20.356H153.185ZM147.977 22.324C148.081 23.484 148.409 24.332 148.961 24.868C149.521 25.404 150.249 25.672 151.145 25.672C151.601 25.672 151.993 25.62 152.321 25.516C152.657 25.404 152.949 25.284 153.197 25.156C153.453 25.02 153.681 24.9 153.881 24.796C154.089 24.684 154.293 24.628 154.493 24.628C154.749 24.628 154.949 24.724 155.093 24.916L156.053 26.116C155.701 26.524 155.313 26.864 154.889 27.136C154.465 27.4 154.025 27.612 153.569 27.772C153.113 27.924 152.653 28.028 152.189 28.084C151.725 28.148 151.277 28.18 150.845 28.18C149.981 28.18 149.173 28.04 148.421 27.76C147.677 27.472 147.025 27.052 146.465 26.5C145.913 25.94 145.477 25.248 145.157 24.424C144.837 23.6 144.677 22.644 144.677 21.556C144.677 20.716 144.813 19.924 145.085 19.18C145.365 18.436 145.765 17.788 146.285 17.236C146.805 16.684 147.437 16.248 148.181 15.928C148.925 15.6 149.765 15.436 150.701 15.436C151.493 15.436 152.221 15.564 152.885 15.82C153.557 16.068 154.133 16.432 154.613 16.912C155.101 17.392 155.477 17.984 155.741 18.688C156.013 19.384 156.149 20.18 156.149 21.076C156.149 21.324 156.137 21.528 156.113 21.688C156.089 21.848 156.049 21.976 155.993 22.072C155.937 22.168 155.861 22.236 155.765 22.276C155.669 22.308 155.545 22.324 155.393 22.324H147.977ZM170.235 19.252C171.363 19.252 172.187 18.98 172.707 18.436C173.235 17.892 173.499 17.148 173.499 16.204C173.499 15.772 173.431 15.38 173.295 15.028C173.167 14.668 172.967 14.364 172.695 14.116C172.431 13.86 172.095 13.664 171.687 13.528C171.279 13.392 170.795 13.324 170.235 13.324H167.955V19.252H170.235ZM170.235 10.588C171.427 10.588 172.455 10.728 173.319 11.008C174.191 11.288 174.907 11.68 175.467 12.184C176.027 12.68 176.439 13.272 176.703 13.96C176.975 14.648 177.111 15.396 177.111 16.204C177.111 17.06 176.971 17.844 176.691 18.556C176.411 19.268 175.987 19.88 175.419 20.392C174.851 20.904 174.135 21.304 173.271 21.592C172.407 21.872 171.395 22.012 170.235 22.012H167.955V28H164.355V10.588H170.235ZM181.89 17.668C182.282 16.964 182.734 16.408 183.246 16C183.758 15.592 184.358 15.388 185.046 15.388C185.606 15.388 186.062 15.52 186.414 15.784L186.198 18.232C186.158 18.392 186.094 18.504 186.006 18.568C185.926 18.624 185.814 18.652 185.67 18.652C185.542 18.652 185.358 18.636 185.118 18.604C184.878 18.564 184.654 18.544 184.446 18.544C184.142 18.544 183.87 18.588 183.63 18.676C183.398 18.764 183.19 18.888 183.006 19.048C182.822 19.208 182.654 19.404 182.502 19.636C182.358 19.868 182.222 20.132 182.094 20.428V28H178.782V15.628H180.738C181.074 15.628 181.306 15.688 181.434 15.808C181.562 15.928 181.654 16.136 181.71 16.432L181.89 17.668ZM193.128 15.436C194.056 15.436 194.9 15.584 195.66 15.88C196.42 16.176 197.072 16.6 197.616 17.152C198.16 17.696 198.58 18.36 198.876 19.144C199.172 19.928 199.32 20.812 199.32 21.796C199.32 22.78 199.172 23.668 198.876 24.46C198.58 25.244 198.16 25.912 197.616 26.464C197.072 27.016 196.42 27.44 195.66 27.736C194.9 28.032 194.056 28.18 193.128 28.18C192.192 28.18 191.34 28.032 190.572 27.736C189.812 27.44 189.16 27.016 188.616 26.464C188.072 25.912 187.648 25.244 187.344 24.46C187.048 23.668 186.9 22.78 186.9 21.796C186.9 20.812 187.048 19.928 187.344 19.144C187.648 18.36 188.072 17.696 188.616 17.152C189.16 16.6 189.812 16.176 190.572 15.88C191.34 15.584 192.192 15.436 193.128 15.436ZM193.128 25.696C194.072 25.696 194.772 25.372 195.228 24.724C195.684 24.068 195.912 23.096 195.912 21.808C195.912 20.528 195.684 19.564 195.228 18.916C194.772 18.26 194.072 17.932 193.128 17.932C192.16 17.932 191.448 18.26 190.992 18.916C190.536 19.564 190.308 20.528 190.308 21.808C190.308 23.096 190.536 24.068 190.992 24.724C191.448 25.372 192.16 25.696 193.128 25.696ZM110.404 35.4115L104.329 55H100.671L96.661 42.1885C96.598 42.0085 96.535 41.8105 96.472 41.5945C96.409 41.3785 96.3505 41.149 96.2965 40.906C96.2425 41.149 96.184 41.3785 96.121 41.5945C96.058 41.8105 95.995 42.0085 95.932 42.1885L91.882 55H88.21L82.1485 35.4115H85.5505C85.9015 35.4115 86.194 35.4925 86.428 35.6545C86.671 35.8165 86.8285 36.0325 86.9005 36.3025L89.938 47.3455C90.01 47.6515 90.082 47.9845 90.154 48.3445C90.235 48.6955 90.3115 49.069 90.3835 49.465C90.4645 49.06 90.55 48.682 90.64 48.331C90.73 47.98 90.829 47.6515 90.937 47.3455L94.474 36.3025C94.546 36.0775 94.699 35.875 94.933 35.695C95.176 35.506 95.4685 35.4115 95.8105 35.4115H96.9985C97.3495 35.4115 97.633 35.497 97.849 35.668C98.074 35.83 98.2405 36.0415 98.3485 36.3025L101.872 47.3455C101.98 47.6335 102.079 47.9485 102.169 48.2905C102.259 48.6235 102.345 48.979 102.426 49.357C102.498 48.979 102.565 48.6235 102.628 48.2905C102.7 47.9485 102.772 47.6335 102.844 47.3455L105.882 36.3025C105.945 36.0685 106.098 35.8615 106.341 35.6815C106.584 35.5015 106.876 35.4115 107.218 35.4115H110.404ZM114.299 43.3765C114.74 42.5845 115.249 41.959 115.825 41.5C116.401 41.041 117.076 40.8115 117.85 40.8115C118.48 40.8115 118.993 40.96 119.389 41.257L119.146 44.011C119.101 44.191 119.029 44.317 118.93 44.389C118.84 44.452 118.714 44.4835 118.552 44.4835C118.408 44.4835 118.201 44.4655 117.931 44.4295C117.661 44.3845 117.409 44.362 117.175 44.362C116.833 44.362 116.527 44.4115 116.257 44.5105C115.996 44.6095 115.762 44.749 115.555 44.929C115.348 45.109 115.159 45.3295 114.988 45.5905C114.826 45.8515 114.673 46.1485 114.529 46.4815V55H110.803V41.0815H113.003C113.381 41.0815 113.642 41.149 113.786 41.284C113.93 41.419 114.034 41.653 114.097 41.986L114.299 43.3765ZM129.493 46.4005C129.493 46.0135 129.439 45.6445 129.331 45.2935C129.232 44.9425 129.07 44.632 128.845 44.362C128.62 44.092 128.337 43.8805 127.995 43.7275C127.653 43.5655 127.243 43.4845 126.766 43.4845C125.875 43.4845 125.178 43.7365 124.674 44.2405C124.17 44.7445 123.841 45.4645 123.688 46.4005H129.493ZM123.634 48.6145C123.751 49.9195 124.12 50.8735 124.741 51.4765C125.371 52.0795 126.19 52.381 127.198 52.381C127.711 52.381 128.152 52.3225 128.521 52.2055C128.899 52.0795 129.228 51.9445 129.507 51.8005C129.795 51.6475 130.051 51.5125 130.276 51.3955C130.51 51.2695 130.74 51.2065 130.965 51.2065C131.253 51.2065 131.478 51.3145 131.64 51.5305L132.72 52.8805C132.324 53.3395 131.887 53.722 131.41 54.028C130.933 54.325 130.438 54.5635 129.925 54.7435C129.412 54.9145 128.895 55.0315 128.373 55.0945C127.851 55.1665 127.347 55.2025 126.861 55.2025C125.889 55.2025 124.98 55.045 124.134 54.73C123.297 54.406 122.563 53.9335 121.933 53.3125C121.312 52.6825 120.822 51.904 120.462 50.977C120.102 50.05 119.922 48.9745 119.922 47.7505C119.922 46.8055 120.075 45.9145 120.381 45.0775C120.696 44.2405 121.146 43.5115 121.731 42.8905C122.316 42.2695 123.027 41.779 123.864 41.419C124.701 41.05 125.646 40.8655 126.699 40.8655C127.59 40.8655 128.409 41.0095 129.156 41.2975C129.912 41.5765 130.56 41.986 131.1 42.526C131.649 43.066 132.072 43.732 132.369 44.524C132.675 45.307 132.828 46.2025 132.828 47.2105C132.828 47.4895 132.814 47.719 132.787 47.899C132.76 48.079 132.715 48.223 132.652 48.331C132.589 48.439 132.504 48.5155 132.396 48.5605C132.288 48.5965 132.148 48.6145 131.977 48.6145H123.634ZM143.793 43.9435C143.694 44.0965 143.591 44.209 143.483 44.281C143.384 44.344 143.244 44.3755 143.064 44.3755C142.884 44.3755 142.7 44.3305 142.511 44.2405C142.322 44.1505 142.11 44.056 141.876 43.957C141.642 43.849 141.372 43.75 141.066 43.66C140.769 43.57 140.423 43.525 140.027 43.525C139.424 43.525 138.956 43.651 138.623 43.903C138.29 44.146 138.123 44.47 138.123 44.875C138.123 45.154 138.218 45.388 138.407 45.577C138.596 45.766 138.843 45.9325 139.149 46.0765C139.464 46.2115 139.82 46.342 140.216 46.468C140.612 46.585 141.017 46.7155 141.431 46.8595C141.854 47.0035 142.263 47.17 142.659 47.359C143.055 47.548 143.406 47.7865 143.712 48.0745C144.027 48.3535 144.279 48.6955 144.468 49.1005C144.657 49.4965 144.752 49.978 144.752 50.545C144.752 51.22 144.626 51.8455 144.374 52.4215C144.131 52.9885 143.771 53.479 143.294 53.893C142.817 54.307 142.223 54.631 141.512 54.865C140.801 55.099 139.982 55.216 139.055 55.216C138.578 55.216 138.105 55.171 137.637 55.081C137.169 55 136.724 54.883 136.301 54.73C135.878 54.568 135.482 54.3835 135.113 54.1765C134.744 53.9695 134.424 53.7445 134.154 53.5015L135.018 52.111C135.117 51.949 135.239 51.823 135.383 51.733C135.536 51.643 135.729 51.598 135.963 51.598C136.188 51.598 136.395 51.6565 136.584 51.7735C136.773 51.8815 136.985 52.003 137.219 52.138C137.453 52.264 137.727 52.3855 138.042 52.5025C138.366 52.6105 138.767 52.6645 139.244 52.6645C139.604 52.6645 139.914 52.624 140.175 52.543C140.436 52.462 140.648 52.354 140.81 52.219C140.972 52.075 141.089 51.9175 141.161 51.7465C141.242 51.5665 141.282 51.382 141.282 51.193C141.282 50.887 141.183 50.6395 140.985 50.4505C140.796 50.2525 140.544 50.0815 140.229 49.9375C139.923 49.7935 139.568 49.663 139.163 49.546C138.758 49.429 138.344 49.2985 137.921 49.1545C137.507 49.0105 137.097 48.8395 136.692 48.6415C136.296 48.4435 135.941 48.196 135.626 47.899C135.32 47.593 135.068 47.2195 134.87 46.7785C134.681 46.3375 134.586 45.802 134.586 45.172C134.586 44.596 134.699 44.0515 134.924 43.5385C135.149 43.0165 135.486 42.5575 135.936 42.1615C136.386 41.7655 136.944 41.4505 137.61 41.2165C138.285 40.9825 139.064 40.8655 139.946 40.8655C140.936 40.8655 141.836 41.0275 142.646 41.3515C143.456 41.6755 144.122 42.0985 144.644 42.6205L143.793 43.9435ZM151.89 55.216C151.26 55.216 150.702 55.126 150.216 54.946C149.73 54.757 149.32 54.4915 148.987 54.1495C148.654 53.8075 148.402 53.3935 148.231 52.9075C148.06 52.4215 147.975 51.8725 147.975 51.2605V43.7545H146.665C146.467 43.7545 146.296 43.6915 146.152 43.5655C146.017 43.4395 145.95 43.2505 145.95 42.9985V41.5405L148.177 41.1355L148.933 37.531C149.032 37.126 149.307 36.9235 149.757 36.9235H151.701V41.1625H155.292V43.7545H151.701V51.0175C151.701 51.4045 151.791 51.7105 151.971 51.9355C152.16 52.1605 152.425 52.273 152.767 52.273C152.947 52.273 153.1 52.255 153.226 52.219C153.352 52.174 153.46 52.129 153.55 52.084C153.64 52.03 153.721 51.985 153.793 51.949C153.874 51.904 153.955 51.8815 154.036 51.8815C154.144 51.8815 154.234 51.9085 154.306 51.9625C154.378 52.0075 154.45 52.0885 154.522 52.2055L155.643 53.9875C155.13 54.3925 154.549 54.6985 153.901 54.9055C153.253 55.1125 152.583 55.216 151.89 55.216ZM161.041 34.8715V55H157.315V34.8715H161.041ZM167.977 41.0815V55H164.251V41.0815H167.977ZM168.423 37.126C168.423 37.441 168.36 37.7335 168.234 38.0035C168.108 38.2735 167.937 38.512 167.721 38.719C167.514 38.926 167.266 39.088 166.978 39.205C166.699 39.322 166.398 39.3805 166.074 39.3805C165.768 39.3805 165.475 39.322 165.196 39.205C164.926 39.088 164.688 38.926 164.481 38.719C164.274 38.512 164.107 38.2735 163.981 38.0035C163.864 37.7335 163.806 37.441 163.806 37.126C163.806 36.811 163.864 36.5185 163.981 36.2485C164.107 35.9695 164.274 35.7265 164.481 35.5195C164.688 35.3125 164.926 35.1505 165.196 35.0335C165.475 34.9165 165.768 34.858 166.074 34.858C166.398 34.858 166.699 34.9165 166.978 35.0335C167.266 35.1505 167.514 35.3125 167.721 35.5195C167.937 35.7265 168.108 35.9695 168.234 36.2485C168.36 36.5185 168.423 36.811 168.423 37.126ZM174.613 42.7015C174.892 42.4315 175.18 42.184 175.477 41.959C175.783 41.734 176.103 41.5405 176.436 41.3785C176.778 41.2165 177.142 41.0905 177.529 41.0005C177.925 40.9105 178.353 40.8655 178.812 40.8655C179.568 40.8655 180.238 40.996 180.823 41.257C181.408 41.518 181.899 41.8825 182.295 42.3505C182.7 42.8185 183.001 43.3765 183.199 44.0245C183.406 44.6725 183.51 45.3835 183.51 46.1575V55H179.797V46.1575C179.797 45.3835 179.617 44.785 179.257 44.362C178.897 43.93 178.366 43.714 177.664 43.714C177.142 43.714 176.652 43.8265 176.193 44.0515C175.734 44.2765 175.297 44.5915 174.883 44.9965V55H171.157V41.0815H173.452C173.92 41.0815 174.231 41.2975 174.384 41.7295L174.613 42.7015ZM191.661 47.521C192.426 47.521 192.988 47.3275 193.348 46.9405C193.717 46.5535 193.902 46.054 193.902 45.442C193.902 44.803 193.717 44.3035 193.348 43.9435C192.988 43.5745 192.426 43.39 191.661 43.39C190.896 43.39 190.333 43.5745 189.973 43.9435C189.613 44.3035 189.433 44.803 189.433 45.442C189.433 46.045 189.613 46.5445 189.973 46.9405C190.342 47.3275 190.905 47.521 191.661 47.521ZM195.184 55.567C195.184 55.324 195.108 55.126 194.955 54.973C194.802 54.82 194.595 54.6985 194.334 54.6085C194.082 54.5185 193.78 54.4555 193.429 54.4195C193.078 54.3745 192.705 54.343 192.309 54.325C191.913 54.298 191.503 54.2755 191.08 54.2575C190.657 54.2395 190.243 54.208 189.838 54.163C189.523 54.352 189.262 54.577 189.055 54.838C188.857 55.09 188.758 55.378 188.758 55.702C188.758 55.927 188.808 56.134 188.906 56.323C189.015 56.512 189.19 56.674 189.433 56.809C189.676 56.944 189.996 57.0475 190.392 57.1195C190.788 57.2005 191.283 57.241 191.876 57.241C192.489 57.241 193.006 57.2005 193.429 57.1195C193.852 57.0385 194.194 56.9215 194.455 56.7685C194.716 56.6245 194.901 56.449 195.009 56.242C195.126 56.035 195.184 55.81 195.184 55.567ZM198.883 41.5405V42.904C198.883 43.12 198.82 43.291 198.694 43.417C198.577 43.543 198.379 43.6375 198.1 43.7005L196.966 43.93C197.119 44.371 197.196 44.8435 197.196 45.3475C197.196 46.0405 197.052 46.666 196.764 47.224C196.485 47.773 196.098 48.2455 195.603 48.6415C195.108 49.0285 194.523 49.33 193.848 49.546C193.173 49.753 192.444 49.8565 191.661 49.8565C191.166 49.8565 190.702 49.816 190.27 49.735C189.892 49.969 189.703 50.2255 189.703 50.5045C189.703 50.7655 189.829 50.9545 190.081 51.0715C190.342 51.1885 190.68 51.274 191.094 51.328C191.517 51.373 191.994 51.4045 192.525 51.4225C193.065 51.4315 193.609 51.4585 194.158 51.5035C194.716 51.5485 195.261 51.6295 195.792 51.7465C196.332 51.8545 196.809 52.039 197.223 52.3C197.646 52.552 197.983 52.8895 198.235 53.3125C198.496 53.7355 198.627 54.28 198.627 54.946C198.627 55.567 198.474 56.17 198.168 56.755C197.862 57.34 197.416 57.862 196.831 58.321C196.255 58.78 195.544 59.149 194.698 59.428C193.852 59.707 192.889 59.8465 191.809 59.8465C190.738 59.8465 189.807 59.743 189.015 59.536C188.232 59.338 187.579 59.068 187.057 58.726C186.544 58.393 186.162 58.006 185.91 57.565C185.658 57.124 185.532 56.665 185.532 56.188C185.532 55.567 185.721 55.0405 186.099 54.6085C186.477 54.1765 186.999 53.83 187.665 53.569C187.314 53.371 187.03 53.1145 186.814 52.7995C186.607 52.4755 186.504 52.057 186.504 51.544C186.504 51.13 186.652 50.6935 186.949 50.2345C187.255 49.7755 187.723 49.393 188.353 49.087C187.642 48.709 187.08 48.205 186.666 47.575C186.252 46.936 186.045 46.1935 186.045 45.3475C186.045 44.6545 186.184 44.029 186.463 43.471C186.751 42.913 187.147 42.4405 187.651 42.0535C188.155 41.6575 188.749 41.356 189.433 41.149C190.117 40.942 190.86 40.8385 191.661 40.8385C192.849 40.8385 193.897 41.0725 194.806 41.5405H198.883Z" fill="white"/>
<rect width="66" height="66" rx="20" fill="white"/>
<path d="M15.5918 25.864C17.4958 25.864 18.9438 26.264 19.9358 27.064C20.9438 27.864 21.4478 29.024 21.4478 30.544C21.4478 32.112 20.9438 33.312 19.9358 34.144C18.9438 34.96 17.4958 35.368 15.5918 35.368H14.3918V37.312H16.6478V40H9.37575V37.312H11.2958V28.552H9.37575V25.864H15.5918ZM15.5678 32.992C17.3598 32.992 18.2558 32.2 18.2558 30.616C18.2558 29.24 17.3598 28.552 15.5678 28.552H14.4158V32.992H15.5678ZM28.7168 25.864C30.6208 25.864 32.0688 26.264 33.0608 27.064C34.0688 27.864 34.5728 29.024 34.5728 30.544C34.5728 32.112 34.0688 33.312 33.0608 34.144C32.0688 34.96 30.6208 35.368 28.7168 35.368H27.5168V37.312H29.7728V40H22.5008V37.312H24.4208V28.552H22.5008V25.864H28.7168ZM28.6928 32.992C30.4848 32.992 31.3808 32.2 31.3808 30.616C31.3808 29.24 30.4848 28.552 28.6928 28.552H27.5408V32.992H28.6928ZM35.2305 25.864H41.9745V28.552H40.7265L41.9505 33.832L42.5745 36.88L43.1265 33.832L44.7825 27.64H48.6225L50.3025 33.832L50.8545 36.88L51.3825 33.832L52.5825 28.552H51.0945V25.864H57.4785V28.552H55.9665L52.3185 40H48.7185L47.3745 33.664L46.7265 30.664L46.0065 33.52L44.3985 40H40.7985L37.1985 28.552H35.2305V25.864Z" fill="#202020"/>
</svg>
